<svg xmlns="http://www.w3.org/2000/svg" viewBox="0 0 1000 562.5" role="img" aria-labelledby="t d"><title id="t">第1季原创封面</title><desc id="d">北境城堡、冰原狼与披风人物的原创暗黑奇幻插画。</desc><defs><linearGradient id="g" x1="0" y1="0" x2="1" y2="1"><stop stop-color="#061522"/><stop offset=".58" stop-color="#17425f"/><stop offset="1" stop-color="#050d14"/></linearGradient><radialGradient id="m"><stop stop-color="#e1f4ff" stop-opacity=".9"/><stop offset="1" stop-color="#8ed5fa" stop-opacity="0"/></radialGradient><filter id="f"><feTurbulence baseFrequency=".72" numOctaves="2" seed="2"/><feColorMatrix values="1 0 0 0 0 0 1 0 0 0 0 0 1 0 0 0 0 0 .07 0"/></filter></defs><rect width="1000" height="562.5" fill="url(#g)"/><circle cx="780" cy="115" r="250" fill="url(#m)"/><path fill="#050a0e" d="M20 430V256h72v-55l40-40 40 40v55h66V182h85v-52l47-47 47 47v52h74v74h58v-61h88v-43l43-43 43 43v43h92v61h76v174H20Z"/><path fill="#132935" d="M117 245h16v38h-16zm149-30h17v44h-17zm94-68h18v47h-18zm237 64h17v44h-17zm120-58h18v47h-18z"/><path fill="#05080b" d="M667 223a38 38 0 1 1 76 0l73 308H595l62-308Z"/><path fill="#0b1116" d="M674 250 540 531h92l89-284Z"/><path fill="#dceaf0" d="M95 383c39-61 129-79 205-43l55-47 20 67 54 20-54 29-33 52-52-29c-61 44-149 47-216 13l-33-53 54-9Z"/><path fill="#bdd1da" d="m351 339 43-50 10 62Z"/><circle cx="397" cy="381" r="8" fill="#071017"/><g stroke="#dceaf0" stroke-width="19" stroke-linecap="round"><path d="M122 444v79m82-68v71m88-79v78"/><path d="m88 399-50-35"/></g><g fill="#e5f5fc" opacity=".78"><circle cx="73" cy="65" r="3"/><circle cx="137" cy="117" r="2"/><circle cx="204" cy="45" r="3"/><circle cx="317" cy="91" r="2"/><circle cx="846" cy="74" r="3"/><circle cx="927" cy="151" r="2"/><circle cx="535" cy="84" r="2"/></g><rect width="1000" height="562.5" filter="url(#f)" opacity=".25"/></svg>