<svg xmlns="http://www.w3.org/2000/svg" viewBox="0 0 1000 562.5" role="img" aria-labelledby="t d"><title id="t">第3季原创封面</title><desc id="d">血色宴厅、破碎盟约与交叉长剑的原创暗黑奇幻插画。</desc><defs><linearGradient id="g" x1="0" y1="0" x2="1" y2="1"><stop stop-color="#10080d"/><stop offset=".55" stop-color="#611724"/><stop offset="1" stop-color="#070608"/></linearGradient><radialGradient id="r"><stop stop-color="#d34a58" stop-opacity=".55"/><stop offset="1" stop-color="#8e1526" stop-opacity="0"/></radialGradient><filter id="n"><feTurbulence baseFrequency=".68" numOctaves="2" seed="7"/><feColorMatrix values="1 0 0 0 0 0 1 0 0 0 0 0 1 0 0 0 0 0 .08 0"/></filter></defs><rect width="1000" height="562.5" fill="url(#g)"/><circle cx="500" cy="265" r="340" fill="url(#r)"/><g opacity=".65"><path fill="#a63a49" d="M100 391V165c0-53 95-53 95 0v226Z"/><path fill="#8c2838" d="M246 391V124c0-57 103-57 103 0v267Z"/><path fill="#8c2838" d="M651 391V124c0-57 103-57 103 0v267Z"/><path fill="#a63a49" d="M805 391V165c0-53 95-53 95 0v226Z"/></g><g transform="rotate(-38 430 280)"><path fill="#d2d8dc" d="M420 28h20l10 350h-40l10-350Z"/><path fill="#eef3f5" d="m430 12 22 47h-44l22-47Z"/><path fill="#bd9752" d="M367 371h126v24H367zm48 24h30v119h-30z"/><circle cx="430" cy="523" r="27" fill="#bd9752"/></g><g transform="rotate(38 570 280)"><path fill="#d2d8dc" d="M560 28h20l10 350h-40l10-350Z"/><path fill="#eef3f5" d="m570 12 22 47h-44l22-47Z"/><path fill="#bd9752" d="M507 371h126v24H507zm48 24h30v119h-30z"/><circle cx="570" cy="523" r="27" fill="#bd9752"/></g><g fill="#050607"><circle cx="130" cy="420" r="31"/><path d="M75 562c5-83 36-116 55-116s50 33 55 116Z"/><circle cx="275" cy="405" r="35"/><path d="M208 562c7-94 45-129 67-129s60 35 67 129Z"/><circle cx="725" cy="405" r="35"/><path d="M658 562c7-94 45-129 67-129s60 35 67 129Z"/><circle cx="870" cy="420" r="31"/><path d="M815 562c5-83 36-116 55-116s50 33 55 116Z"/></g><path stroke="#e0616d" stroke-width="6" opacity=".75" d="M48 392h904"/><rect width="1000" height="562.5" filter="url(#n)" opacity=".28"/></svg>