<svg xmlns="http://www.w3.org/2000/svg" viewBox="0 0 1000 562.5" role="img" aria-labelledby="t d"><title id="t">第7季原创封面</title><desc id="d">巨龙飞越冰原、冰山与亡者军团的原创暗黑奇幻插画。</desc><defs><linearGradient id="g" x1="0" y1="0" x2="1" y2="1"><stop stop-color="#041124"/><stop offset=".58" stop-color="#1e4f75"/><stop offset="1" stop-color="#050d15"/></linearGradient><radialGradient id="r"><stop stop-color="#78ccff" stop-opacity=".5"/><stop offset="1" stop-color="#4bb4ef" stop-opacity="0"/></radialGradient><filter id="n"><feTurbulence baseFrequency=".68" numOctaves="2" seed="16"/><feColorMatrix values="1 0 0 0 0 0 1 0 0 0 0 0 1 0 0 0 0 0 .08 0"/></filter></defs><rect width="1000" height="562.5" fill="url(#g)"/><circle cx="525" cy="170" r="330" fill="url(#r)"/><path fill="#b0d7ea" opacity=".45" d="M0 477 155 325l168 109 167-173 170 162 181-134 159 188v85H0Z"/><path fill="#03070b" d="M370 183c48-36 120-36 171 0l101-99-54 136 128 72-168-21-79 67-65-68-181 27 130-78-60-136 77 100Z"/><path fill="#020507" d="m306 219-162 121 184-56 50 46 17-78Zm244 20 160 103-182-47-51 48-14-75Z"/><path fill="#03070b" d="m525 194 174-86-130 140Z"/><g fill="#05080a"><path d="M0 562V465l25-26 26 26v97m30 0V440l29-30 29 30v122m31 0V462l25-26 26 26v100m31 0V431l31-32 31 32v131m31 0V459l26-27 27 27v103m31 0V438l29-30 30 30v124m31 0V463l25-26 26 26v99m32 0V432l31-33 31 33v130m31 0V459l26-27 27 27v103m31 0V439l29-30 30 30v123m31 0V463l25-26 26 26v99m32 0V432l31-33 31 33v130m31 0V459l26-27 27 27v103m31 0V440l29-30 30 30v122"/></g><g fill="#eaf8ff" opacity=".75"><circle cx="65" cy="67" r="3"/><circle cx="167" cy="121" r="2"/><circle cx="297" cy="53" r="3"/><circle cx="820" cy="92" r="3"/><circle cx="930" cy="166" r="2"/><circle cx="702" cy="64" r="3"/></g><rect width="1000" height="562.5" filter="url(#n)" opacity=".3"/></svg>