<svg xmlns="http://www.w3.org/2000/svg" viewBox="0 0 1000 562.5" role="img" aria-labelledby="t d"><title id="t">第4季原创封面</title><desc id="d">铁王座、审判天平与复仇长矛的原创暗黑奇幻插画。</desc><defs><linearGradient id="g" x1="0" y1="0" x2="1" y2="1"><stop stop-color="#151019"/><stop offset=".56" stop-color="#5b3d25"/><stop offset="1" stop-color="#09080b"/></linearGradient><radialGradient id="r"><stop stop-color="#f0ce7b" stop-opacity=".65"/><stop offset="1" stop-color="#ca913a" stop-opacity="0"/></radialGradient><filter id="n"><feTurbulence baseFrequency=".66" numOctaves="2" seed="9"/><feColorMatrix values="1 0 0 0 0 0 1 0 0 0 0 0 1 0 0 0 0 0 .075 0"/></filter></defs><rect width="1000" height="562.5" fill="url(#g)"/><circle cx="690" cy="225" r="350" fill="url(#r)"/><g stroke="#14191d" stroke-width="15" stroke-linecap="round"><path d="m593 261-88-202m130 171L579 9m99 206L659 0m67 210L744 0m37 220L836 10m-3 248 92-184"/></g><path fill="#050608" d="M568 508 523 245l72-111 50 71 63-170 62 170 52-78 72 120-46 261H568Z"/><path fill="#0d1013" d="M523 442h371v93H523z"/><g stroke="#e2c36f" fill="none" stroke-width="9"><path d="M214 94v363M72 165h284"/><path d="M105 166 49 345m307-179 57 179"/><ellipse cx="49" cy="368" rx="93" ry="34"/><ellipse cx="413" cy="368" rx="93" ry="34"/></g><path fill="#d8dfe2" d="M884 40h15l7 383h-29l7-383Z" transform="rotate(17 891 231)"/><path fill="#eaf1f3" d="m891 19 22 51h-44l22-51Z" transform="rotate(17 891 231)"/><path fill="#b58d48" d="M830 415h125v24H830z" transform="rotate(17 891 231)"/><rect width="1000" height="562.5" filter="url(#n)" opacity=".28"/></svg>