<svg xmlns="http://www.w3.org/2000/svg" viewBox="0 0 1000 562.5" role="img" aria-labelledby="t d"><title id="t">第6季原创封面</title><desc id="d">雪中城堡、归来人物、冰原狼旗帜与北境复兴的原创暗黑奇幻插画。</desc><defs><linearGradient id="g" x1="0" y1="0" x2="1" y2="1"><stop stop-color="#061421"/><stop offset=".57" stop-color="#315a70"/><stop offset="1" stop-color="#0b141c"/></linearGradient><radialGradient id="r"><stop stop-color="#d5f1ff" stop-opacity=".76"/><stop offset="1" stop-color="#85c9ec" stop-opacity="0"/></radialGradient><filter id="n"><feTurbulence baseFrequency=".7" numOctaves="2" seed="14"/><feColorMatrix values="1 0 0 0 0 0 1 0 0 0 0 0 1 0 0 0 0 0 .07 0"/></filter></defs><rect width="1000" height="562.5" fill="url(#g)"/><circle cx="790" cy="105" r="255" fill="url(#r)"/><path fill="#050a0e" d="M33 445V273h72v-55l40-40 40 40v55h65v-74h87v-51l47-47 47 47v51h73v74h59v-62h88v-42l44-44 44 44v42h91v62h76v172H33Z"/><path fill="#16303e" d="M130 259h16v38h-16zm148-30h18v44h-18zm96-66h18v47h-18zm237 63h17v44h-17zm120-58h18v47h-18z"/><circle cx="618" cy="224" r="39" fill="#05080b"/><path fill="#05080b" d="M602 258 522 554h190l-74-296Z"/><path fill="#0b1116" d="M609 266 475 554h95l80-286Z"/><path stroke="#d6e1e6" stroke-width="14" d="M828 79v450"/><path fill="#8f2834" d="M836 99 998 155 836 284Z"/><path fill="#dceaf0" d="M854 177c20-31 64-39 101-22l27-23 10 33 27 10-27 15-16 26-26-15c-31 22-75 24-108 7l-17-27 29-4Z"/><g fill="#e8f7fd" opacity=".8"><circle cx="66" cy="65" r="3"/><circle cx="132" cy="117" r="2"/><circle cx="218" cy="44" r="3"/><circle cx="331" cy="91" r="2"/><circle cx="852" cy="72" r="3"/><circle cx="927" cy="151" r="2"/><circle cx="529" cy="84" r="2"/><circle cx="741" cy="143" r="3"/></g><rect width="1000" height="562.5" filter="url(#n)" opacity=".27"/></svg>