<svg xmlns="http://www.w3.org/2000/svg" viewBox="0 0 1000 562.5" role="img" aria-labelledby="t d"><title id="t">第8季原创封面</title><desc id="d">废墟铁王座、孤独人物、灰烬与寒夜终局的原创暗黑奇幻插画。</desc><defs><linearGradient id="g" x1="0" y1="0" x2="1" y2="1"><stop stop-color="#080a0f"/><stop offset=".55" stop-color="#3e2830"/><stop offset="1" stop-color="#050609"/></linearGradient><radialGradient id="r"><stop stop-color="#c56b72" stop-opacity=".35"/><stop offset="1" stop-color="#9a3f49" stop-opacity="0"/></radialGradient><filter id="n"><feTurbulence baseFrequency=".66" numOctaves="2" seed="18"/><feColorMatrix values="1 0 0 0 0 0 1 0 0 0 0 0 1 0 0 0 0 0 .09 0"/></filter></defs><rect width="1000" height="562.5" fill="url(#g)"/><circle cx="694" cy="238" r="320" fill="url(#r)"/><g fill="#06080b"><rect x="28" y="279" width="91" height="283"/><rect x="136" y="208" width="78" height="354"/><rect x="224" y="342" width="66" height="220"/><rect x="836" y="255" width="69" height="307"/><rect x="920" y="170" width="62" height="392"/></g><g stroke="#14181d" stroke-width="15" stroke-linecap="round"><path d="m578 281-90-214m132 180L565 8m99 223L644 0m69 225L733 0m38 235L828 12m-4 265 96-194"/></g><path fill="#050608" d="M553 521 508 259l72-111 50 71 63-170 62 170 52-78 72 120-46 260H553Z"/><path fill="#0d1013" d="M508 456h371v87H508z"/><circle cx="362" cy="237" r="38" fill="#05080b"/><path fill="#05080b" d="M346 269 270 558h181l-70-289Z"/><path fill="#0a0d12" d="M351 276 224 558h90l78-280Z"/><g fill="#eee8e9" opacity=".62"><circle cx="72" cy="66" r="3"/><circle cx="158" cy="119" r="2"/><circle cx="290" cy="49" r="3"/><circle cx="817" cy="93" r="3"/><circle cx="928" cy="168" r="2"/><circle cx="506" cy="83" r="2"/><circle cx="455" cy="147" r="3"/><circle cx="740" cy="117" r="2"/></g><path fill="#5b232b" opacity=".55" d="M0 527 88 498l78 24 72-36 97 41 82-25 85 31 94-39 84 34 105-26 102 31 103-23v52H0Z"/><rect width="1000" height="562.5" filter="url(#n)" opacity=".32"/></svg>