<svg xmlns="http://www.w3.org/2000/svg" viewBox="0 0 1000 562.5" role="img" aria-labelledby="t d"><title id="t">第5季原创封面</title><desc id="d">大圣堂、信仰徽记、巨龙与拥挤人群的原创暗黑奇幻插画。</desc><defs><linearGradient id="g" x1="0" y1="0" x2="1" y2="1"><stop stop-color="#06120d"/><stop offset=".56" stop-color="#28593a"/><stop offset="1" stop-color="#120909"/></linearGradient><radialGradient id="r"><stop stop-color="#76dc8e" stop-opacity=".42"/><stop offset="1" stop-color="#3da964" stop-opacity="0"/></radialGradient><filter id="n"><feTurbulence baseFrequency=".7" numOctaves="2" seed="12"/><feColorMatrix values="1 0 0 0 0 0 1 0 0 0 0 0 1 0 0 0 0 0 .08 0"/></filter></defs><rect width="1000" height="562.5" fill="url(#g)"/><circle cx="310" cy="260" r="290" fill="url(#r)"/><path fill="#050d09" d="M108 485V279L310 62l205 217v206H108Z"/><path fill="#0d2016" d="M177 485V301L310 157l136 144v184H177Z"/><circle cx="310" cy="302" r="115" fill="none" stroke="#75d58a" stroke-width="17" opacity=".55"/><path stroke="#d8c98f" stroke-width="12" stroke-linecap="round" d="M310 222v164m-82-82h164" opacity=".72"/><path fill="#030609" d="M628 203c50-38 126-38 179 0l107-104-57 143 135 75-176-22-83 70-68-71-190 28 137-82-63-143 79 106Z"/><path fill="#020507" d="m561 239-171 127 194-59 52 48 18-81Zm256 21 168 108-191-49-54 51-14-79Z"/><g fill="#050706"><circle cx="63" cy="471" r="22"/><path d="M27 562c3-59 24-78 36-78s33 19 36 78Z"/><circle cx="141" cy="464" r="24"/><path d="M102 562c4-67 27-86 39-86s35 19 39 86Z"/><circle cx="507" cy="468" r="24"/><path d="M468 562c4-67 27-86 39-86s35 19 39 86Z"/><circle cx="588" cy="460" r="25"/><path d="M547 562c5-70 29-90 41-90s36 20 41 90Z"/><circle cx="676" cy="469" r="23"/><path d="M639 562c4-63 25-81 37-81s34 18 37 81Z"/><circle cx="758" cy="462" r="25"/><path d="M717 562c5-69 29-88 41-88s36 19 41 88Z"/><circle cx="850" cy="468" r="24"/><path d="M811 562c4-66 27-85 39-85s35 19 39 85Z"/><circle cx="939" cy="463" r="25"/><path d="M898 562c5-69 29-88 41-88s36 19 41 88Z"/></g><rect width="1000" height="562.5" filter="url(#n)" opacity=".3"/></svg>