<svg xmlns="http://www.w3.org/2000/svg" viewBox="0 0 1000 562.5" role="img" aria-labelledby="t d"><title id="t">第2季原创封面</title><desc id="d">燃烧王冠、五王混战与野火战场的原创暗黑奇幻插画。</desc><defs><linearGradient id="g" x1="0" y1="0" x2="1" y2="1"><stop stop-color="#160706"/><stop offset=".55" stop-color="#71220d"/><stop offset="1" stop-color="#0d0505"/></linearGradient><radialGradient id="r"><stop stop-color="#ffc255" stop-opacity=".95"/><stop offset=".5" stop-color="#ff651d" stop-opacity=".55"/><stop offset="1" stop-color="#ff2d0b" stop-opacity="0"/></radialGradient><filter id="n"><feTurbulence baseFrequency=".63" numOctaves="2" seed="4"/><feColorMatrix values="1 0 0 0 0 0 1 0 0 0 0 0 1 0 0 0 0 0 .08 0"/></filter></defs><rect width="1000" height="562.5" fill="url(#g)"/><circle cx="500" cy="240" r="350" fill="url(#r)"/><path fill="#d7aa4d" d="M314 355 334 112l103 126 63-185 65 185 101-126 20 243H314Z"/><path fill="#f0d17a" d="M294 342h412v69H294z"/><circle cx="334" cy="112" r="21" fill="#fff0b3"/><circle cx="500" cy="53" r="21" fill="#fff0b3"/><circle cx="666" cy="112" r="21" fill="#fff0b3"/><g fill="#050607"><path d="M0 562V458l27-28 28 28v104m33 0V430l31-32 31 32v132m33 0V451l28-29 28 29v111m35 0V419l33-35 33 35v143m34 0V449l28-29 29 29v113m34 0V427l31-32 31 32v135m35 0V452l28-29 28 29v110m34 0V420l33-35 34 35v142m34 0V448l29-29 29 29v114m33 0V429l31-32 31 32v133m35 0V451l28-29 28 29v111m35 0V419l33-35 33 35v143m35 0V449l28-29 28 29v113m35 0V428l31-32 31 32v134"/></g><path fill="#ff7b1c" opacity=".92" d="M0 540 49 463l41 77 55-126 50 126 59-91 43 91 62-147 56 147 45-105 59 105 51-135 62 135 49-86 51 86 63-131 58 131 46-90 53 90 58-148 60 148v23H0Z"/><rect width="1000" height="562.5" filter="url(#n)" opacity=".28"/></svg>